<?xml version="1.0" encoding="UTF-8"?>
<svg width="176px" height="34px" viewBox="0 0 176 34" version="1.1" xmlns="http://www.w3.org/2000/svg" xmlns:xlink="http://www.w3.org/1999/xlink">
    <!-- Generator: Sketch 48.2 (47327) - http://www.bohemiancoding.com/sketch -->
    <title>mdpi/inverted_logo</title>
    <desc>Created with Sketch.</desc>
    <defs></defs>
    <g id="Symbols" stroke="none" stroke-width="1" fill="none" fill-rule="evenodd">
        <g id="inverted_logo">
            <g id="inverted-logo">
                <g id="Group-18" fill="#FFFFFF">
                    <circle id="Oval-5" cx="17" cy="17" r="17"></circle>
                </g>
                <g id="V4.4" transform="translate(8.000000, 5.000000)">
                    <path d="M17.7620312,8.91366362 L9.16963332,0.0951499899 C9.07834963,0.00146409228 8.92840215,-0.000483277615 8.83471625,0.0908004175 C8.83324762,0.0922313853 8.83179764,0.0936813651 8.83036668,0.0951499899 L0.237968783,8.91366362 C0.146685088,9.00734951 0.148632458,9.157297 0.242318356,9.24858069 C0.286545045,9.29167336 0.345852788,9.31578947 0.407602107,9.31578947 L4.55201328,9.31578947 C4.6158942,9.31578947 4.67706636,9.28998453 4.7216466,9.24423112 L8.83036668,5.02738683 C8.92165037,4.93370093 9.07159785,4.93175356 9.16528375,5.02303726 C9.16675238,5.02446823 9.16820236,5.02591821 9.16963332,5.02738683 L13.2783534,9.24423112 C13.3229336,9.28998453 13.3841058,9.31578947 13.4479867,9.31578947 L17.5923979,9.31578947 C17.7232022,9.31578947 17.82924,9.20975165 17.82924,9.07894737 C17.82924,9.01719805 17.8051239,8.95789031 17.7620312,8.91366362 Z" id="Top-Arrow" fill="#00D9C9"></path>
                    <path d="M17.9042568,13.9543688 L9.1413611,4.96087061 C9.06529136,4.88279902 8.94033512,4.88117622 8.86226354,4.95724596 C8.86103969,4.95843844 8.85983137,4.95964675 8.8586389,4.96087061 L0.0957432167,13.9543688 C0.0196734708,14.0324404 0.021296279,14.1573966 0.0993678604,14.2334664 C0.136223435,14.2693769 0.185646554,14.2894737 0.23710432,14.2894737 L4.53212645,14.2894737 C4.58536055,14.2894737 4.63633735,14.2679696 4.67348755,14.2298417 L8.8586389,9.93455482 C8.93470864,9.85648323 9.05966488,9.85486043 9.13773646,9.93093017 C9.13896031,9.93212265 9.14016863,9.93333096 9.1413611,9.93455482 L13.3846154,14.2894737 L17.7628957,14.2894737 C17.8718992,14.2894737 17.9602641,14.2011088 17.9602641,14.0921053 C17.9602641,14.0406475 17.9401673,13.9912244 17.9042568,13.9543688 Z" id="Middle-Arrow" fill="#12A8D6"></path>
                    <path d="M0.0957432167,18.928053 L8.8586389,9.93455482 C8.93470864,9.85648323 9.05966488,9.85486043 9.13773646,9.93093017 C9.13896031,9.93212265 9.14016863,9.93333096 9.1413611,9.93455482 L17.9042568,18.928053 C17.9803265,19.0061246 17.9787037,19.1310808 17.9006321,19.2071506 C17.8637766,19.2430611 17.8143534,19.2631579 17.7628957,19.2631579 L12.2742915,19.2631579 C12.1652879,19.2631579 12.0769231,19.3515227 12.0769231,19.4605263 L12.0769231,23.8026316 C12.0769231,23.9116351 11.9885582,24 11.8795547,24 L6.12044534,24 C6.01144178,24 5.92307692,23.9116351 5.92307692,23.8026316 L5.92307692,19.2631579 L0.23710432,19.2631579 C0.128100751,19.2631579 0.0397358986,19.174793 0.0397358986,19.0657895 C0.0397358986,19.0143317 0.0598326573,18.9649086 0.0957432167,18.928053 Z" id="Bottom-Arrow" fill="#5B58EC"></path>
                </g>
            </g>
            <g id="Blue" transform="translate(43.000000, 8.000000)" fill="#FFFFFF">
                <path d="M0.776,17 L0.776,0.992 L8.288,0.992 C11.144,0.992 12.8,2.744 12.8,5.072 C12.8,7.088 11.48,8.432 10.016,8.744 C11.72,9.008 13.112,10.736 13.112,12.68 C13.112,15.2 11.432,17 8.48,17 L0.776,17 Z M3.176,7.784 L7.832,7.784 C9.44,7.784 10.328,6.776 10.328,5.456 C10.328,4.136 9.44,3.104 7.832,3.104 L3.176,3.104 L3.176,7.784 Z M3.176,14.888 L7.952,14.888 C9.632,14.888 10.64,13.928 10.64,12.368 C10.64,11.048 9.728,9.896 7.952,9.896 L3.176,9.896 L3.176,14.888 Z" id="Combined-Shape"></path>
                <polygon id="Path" points="16.7094736 17 16.7094736 0.992 18.8694736 0.992 18.8694736 17"></polygon>
                <path d="M30.7949473,17 L30.7949473,15.416 C29.9069473,16.376 28.4429473,17.288 26.6669473,17.288 C24.1949473,17.288 22.9709473,16.04 22.9709473,13.592 L22.9709473,5.408 L25.1309473,5.408 L25.1309473,12.872 C25.1309473,14.792 26.0909473,15.368 27.5789473,15.368 C28.9229473,15.368 30.1469473,14.6 30.7949473,13.736 L30.7949473,5.408 L32.9549473,5.408 L32.9549473,17 L30.7949473,17 Z" id="Path"></path>
                <path d="M36.3364209,11.192 C36.3364209,7.832 38.7604209,5.12 42.1444209,5.12 C45.6244209,5.12 47.7844209,7.832 47.7844209,11.384 L47.7844209,11.912 L38.6164209,11.912 C38.7844209,13.88 40.2244209,15.512 42.5524209,15.512 C43.7764209,15.512 45.1204209,15.032 45.9844209,14.144 L46.9924209,15.56 C45.8404209,16.688 44.2084209,17.288 42.3364209,17.288 C38.8804209,17.288 36.3364209,14.84 36.3364209,11.192 Z M42.1444209,6.896 C39.8164209,6.896 38.7124209,8.768 38.5924209,10.352 L45.6724209,10.352 C45.6244209,8.816 44.5924209,6.896 42.1444209,6.896 Z" id="Combined-Shape"></path>
            </g>
            <g id="Sapling" transform="translate(93.000000, 8.000000)" fill="#FFFFFF">
                <path d="M0.229894592,14.744 L1.59789459,12.896 C2.67789459,14.096 4.40589459,15.152 6.63789459,15.152 C9.22989459,15.152 10.1418946,13.832 10.1418946,12.68 C10.1418946,11 8.31789459,10.52 6.27789459,9.992 C3.70989459,9.32 0.733894592,8.576 0.733894592,5.312 C0.733894592,2.672 3.06189459,0.752 6.39789459,0.752 C8.86989459,0.752 10.8138946,1.544 12.2298946,2.984 L10.8378946,4.76 C9.61389459,3.464 7.93389459,2.888 6.20589459,2.888 C4.42989459,2.888 3.20589459,3.8 3.20589459,5.144 C3.20589459,6.584 4.93389459,7.04 6.92589459,7.544 C9.54189459,8.24 12.5898946,9.056 12.5898946,12.464 C12.5898946,14.96 10.8618946,17.288 6.54189459,17.288 C3.68589459,17.288 1.59789459,16.256 0.229894592,14.744 Z" id="Path"></path>
                <path d="M23.1473682,17 L23.1473682,15.728 C22.2353682,16.736 20.9153682,17.288 19.3553682,17.288 C17.4353682,17.288 15.3233682,15.992 15.3233682,13.448 C15.3233682,10.808 17.4113682,9.656 19.3553682,9.656 C20.9153682,9.656 22.2593682,10.16 23.1473682,11.192 L23.1473682,9.272 C23.1473682,7.832 21.9713682,6.968 20.3153682,6.968 C18.9953682,6.968 17.8673682,7.472 16.8353682,8.504 L15.8993682,7.016 C17.1953682,5.744 18.7793682,5.12 20.6513682,5.12 C23.1713682,5.12 25.3073682,6.224 25.3073682,9.176 L25.3073682,17 L23.1473682,17 Z M23.1473682,14.456 L23.1473682,12.488 C22.4993682,11.624 21.3713682,11.168 20.1713682,11.168 C18.6113682,11.168 17.5073682,12.104 17.5073682,13.472 C17.5073682,14.84 18.6113682,15.776 20.1713682,15.776 C21.3713682,15.776 22.4993682,15.32 23.1473682,14.456 Z" id="Combined-Shape"></path>
                <path d="M31.5928419,21.416 L29.4328419,21.416 L29.4328419,5.408 L31.5928419,5.408 L31.5928419,7.064 C32.4328419,5.912 33.8248419,5.12 35.3848419,5.12 C38.4088419,5.12 40.5448419,7.4 40.5448419,11.192 C40.5448419,14.984 38.4088419,17.288 35.3848419,17.288 C33.8728419,17.288 32.5288419,16.592 31.5928419,15.32 L31.5928419,21.416 Z M38.2888419,11.192 C38.2888419,8.792 36.9688419,7.04 34.8088419,7.04 C33.4888419,7.04 32.1688419,7.808 31.5928419,8.744 L31.5928419,13.664 C32.1688419,14.576 33.4888419,15.368 34.8088419,15.368 C36.9688419,15.368 38.2888419,13.616 38.2888419,11.192 Z" id="Combined-Shape"></path>
                <polygon id="Path" points="43.9503155 17 43.9503155 0.992 46.1103155 0.992 46.1103155 17"></polygon>
                <path d="M51.2677892,3.464 C50.5237892,3.464 49.8757892,2.864 49.8757892,2.096 C49.8757892,1.328 50.5237892,0.704 51.2677892,0.704 C52.0357892,0.704 52.6597892,1.328 52.6597892,2.096 C52.6597892,2.864 52.0357892,3.464 51.2677892,3.464 Z M50.2117892,17 L50.2117892,5.408 L52.3717892,5.408 L52.3717892,17 L50.2117892,17 Z" id="Combined-Shape"></path>
                <path d="M64.2972628,17 L64.2972628,9.584 C64.2972628,7.664 63.3132628,7.04 61.8252628,7.04 C60.4812628,7.04 59.2572628,7.856 58.6332628,8.72 L58.6332628,17 L56.4732628,17 L56.4732628,5.408 L58.6332628,5.408 L58.6332628,7.04 C59.4012628,6.104 60.9372628,5.12 62.7372628,5.12 C65.1852628,5.12 66.4572628,6.416 66.4572628,8.864 L66.4572628,17 L64.2972628,17 Z" id="Path"></path>
                <path d="M70.4627365,19.976 L71.4947365,18.392 C72.4547365,19.496 73.6307365,19.928 75.2147365,19.928 C77.0147365,19.928 78.8147365,19.064 78.8147365,16.616 L78.8147365,15.104 C77.9267365,16.256 76.5587365,17.096 74.9987365,17.096 C71.9987365,17.096 69.8387365,14.888 69.8387365,11.096 C69.8387365,7.376 71.9987365,5.12 74.9987365,5.12 C76.5107365,5.12 77.8787365,5.84 78.8147365,7.088 L78.8147365,5.408 L80.9747365,5.408 L80.9747365,16.544 C80.9747365,20.528 78.0707365,21.704 75.2147365,21.704 C73.2707365,21.704 71.8547365,21.296 70.4627365,19.976 Z M78.8147365,13.448 L78.8147365,8.744 C78.2147365,7.808 76.8947365,7.04 75.5987365,7.04 C73.4387365,7.04 72.0947365,8.72 72.0947365,11.096 C72.0947365,13.496 73.4387365,15.176 75.5987365,15.176 C76.8947365,15.176 78.2147365,14.384 78.8147365,13.448 Z" id="Combined-Shape"></path>
            </g>
        </g>
    </g>
</svg>